<svg width="61" height="142" viewBox="0 0 61 142" fill="none" xmlns="http://www.w3.org/2000/svg">
<mask id="mask0_9_39" style="mask-type:luminance" maskUnits="userSpaceOnUse" x="0" y="0" width="61" height="142">
<mask id="path-1-inside-1_9_39" fill="white">
<path d="M0.978394 141.27L0.47511 0.327771L60.1824 0.114566L60.6857 141.057L0.978394 141.27Z"/>
</mask>
<path d="M0.978394 141.27L0.47511 0.327771L60.1824 0.114566L60.6857 141.057L0.978394 141.27Z" fill="white" stroke="white" stroke-width="2" mask="url(#path-1-inside-1_9_39)"/>
</mask>
<g mask="url(#mask0_9_39)">
<mask id="path-2-inside-2_9_39" fill="white">
<path d="M1.26611 17.8569L0.999015 17.8579L1.01869 19.9679C1.42374 62.0002 11.7936 103.273 31.1925 140.137C49.8777 102.908 59.4544 61.4433 59.0494 19.4231L59.0296 17.301L58.7505 17.314C58.6677 7.72831 45.7226 0.069554 29.8431 0.23478C13.9636 0.375886 1.18332 8.2712 1.26611 17.8569Z"/>
</mask>
<path d="M1.26611 17.8569L0.999015 17.8579L1.01869 19.9679C1.42374 62.0002 11.7936 103.273 31.1925 140.137C49.8777 102.908 59.4544 61.4433 59.0494 19.4231L59.0296 17.301L58.7505 17.314C58.6677 7.72831 45.7226 0.069554 29.8431 0.23478C13.9636 0.375886 1.18332 8.2712 1.26611 17.8569Z" fill="#FFC947" stroke="black" stroke-width="2" mask="url(#path-2-inside-2_9_39)"/>
</g>
<mask id="path-3-inside-3_9_39" fill="white">
<path d="M44.3559 32.063C44.5049 39.7795 38.3238 46.156 30.5664 46.3043C22.7848 46.4647 16.3647 40.3261 16.2157 32.6096C16.0668 24.8931 22.2358 18.5286 30.0053 18.3682C37.787 18.2199 44.207 24.3465 44.3559 32.063Z"/>
</mask>
<path d="M44.3559 32.063C44.5049 39.7795 38.3238 46.156 30.5664 46.3043C22.7848 46.4647 16.3647 40.3261 16.2157 32.6096C16.0668 24.8931 22.2358 18.5286 30.0053 18.3682C37.787 18.2199 44.207 24.3465 44.3559 32.063Z" fill="white" stroke="black" stroke-width="2" mask="url(#path-3-inside-3_9_39)"/>
</svg>
